<?xml version="1.0" encoding="utf-8"?>
<!-- Generator: Adobe Illustrator 13.0.0, SVG Export Plug-In . SVG Version: 6.00 Build 14948)  -->
<!DOCTYPE svg PUBLIC "-//W3C//DTD SVG 1.1//EN" "http://www.w3.org/Graphics/SVG/1.1/DTD/svg11.dtd">
<svg version="1.1" id="Layer_1" xmlns="http://www.w3.org/2000/svg" xmlns:xlink="http://www.w3.org/1999/xlink" x="0px" y="0px"
	 width="104.319px" height="57.955px" viewBox="0 0 104.319 57.955" enable-background="new 0 0 104.319 57.955"
	 xml:space="preserve">
<path fill="#FFFFFF" d="M46.004,51.623L42.18,41.225c0,0-6.211,6.932-15.534,6.932c-8.244,0-14.102-7.171-14.102-18.642
	c0-14.697,7.41-19.954,14.702-19.954c10.514,0,13.86,6.811,16.727,15.534l3.824,11.949c3.823,11.592,10.994,20.911,31.666,20.911
	c14.818,0,24.856-4.539,24.856-16.49c0-9.678-5.499-14.698-15.773-17.088l-7.649-1.672c-5.258-1.197-6.809-3.345-6.809-6.93
	c0-4.062,3.225-6.453,8.481-6.453c5.735,0,8.843,2.15,9.321,7.289l11.949-1.433C102.884,4.422,95.475,0,83.287,0
	c-10.756,0-21.27,4.065-21.27,17.087c0,8.127,3.942,13.264,13.858,15.654l8.126,1.912c6.095,1.434,8.129,3.943,8.129,7.41
	c0,4.42-4.306,6.214-12.431,6.214c-12.068,0-17.086-6.335-19.954-15.06l-3.944-11.947C50.784,5.737,42.779,0,26.886,0
	C9.318,0,0,11.114,0,29.996c0,18.161,9.318,27.959,26.05,27.959C39.553,57.955,46.004,51.623,46.004,51.623L46.004,51.623z"/>
</svg>
